<svg xmlns="http://www.w3.org/2000/svg" xmlns:xlink="http://www.w3.org/1999/xlink" width="500" zoomAndPan="magnify" viewBox="0 0 375 374.999991" height="500" preserveAspectRatio="xMidYMid meet" version="1.0"><defs><g/><clipPath id="8075c4a89b"><path d="M 160 92.484375 L 215 92.484375 L 215 169 L 160 169 Z M 160 92.484375 " clip-rule="nonzero"/></clipPath><clipPath id="d60b2e4deb"><path d="M 90.222656 101 L 284 101 L 284 186 L 90.222656 186 Z M 90.222656 101 " clip-rule="nonzero"/></clipPath></defs><rect x="-37.5" width="450" fill="#ffffff" y="-37.499999" height="449.999989" fill-opacity="1"/><rect x="-37.5" width="450" fill="#000000" y="-37.499999" height="449.999989" fill-opacity="1"/><g clip-path="url(#8075c4a89b)"><path fill="#ffffff" d="M 212.894531 154.230469 C 212.738281 154.589844 212.566406 154.945312 212.386719 155.292969 C 211.046875 157.902344 208.964844 160.53125 205.828125 162.957031 C 203.863281 164.476562 201.71875 165.722656 199.453125 166.675781 C 203.675781 162.800781 203.730469 157.316406 203.730469 157.316406 C 203.730469 157.316406 202.828125 161.609375 200.378906 161.578125 C 197.929688 161.542969 199.375 159.375 199.375 159.375 C 207.085938 150.75 200.121094 144.914062 199.980469 144.800781 C 202.597656 149.132812 200.679688 154.289062 196.949219 153.417969 C 193.214844 152.546875 194.75 145.992188 194.84375 139.710938 C 194.933594 133.433594 190.605469 131.351562 190.605469 131.351562 C 192.089844 133.886719 191.8125 136.671875 191.273438 138.640625 C 190.863281 140.144531 188.898438 140.558594 187.960938 139.3125 C 186.027344 136.738281 186.28125 132.972656 187.898438 129.3125 C 189.949219 124.679688 188.371094 121.457031 188.300781 121.316406 C 188.324219 121.460938 188.773438 124.5 183.789062 128.0625 C 178.679688 131.714844 178.957031 137.8125 180.277344 140.695312 C 181.601562 143.578125 181.011719 150.59375 175.824219 148.265625 C 170.730469 145.976562 173.921875 138.277344 174.039062 138.007812 C 163.625 158.007812 171.847656 165.671875 178.632812 168.570312 C 171.160156 167.109375 155.21875 160.535156 162.820312 131 C 162.820312 131 162.980469 140.457031 168.269531 141.578125 C 173.5625 142.699219 163.035156 116.414062 174.46875 111.605469 C 174.386719 111.757812 170.136719 119.648438 175.429688 122.714844 C 180.773438 125.816406 174.363281 102.09375 189.214844 92.476562 C 189.070312 92.6875 182.753906 101.9375 187.613281 107.433594 C 192.527344 112.992188 193.8125 115.019531 196.375 121.859375 C 198.941406 128.703125 200.332031 121.753906 199.582031 117.480469 C 198.847656 113.265625 202.367188 109.050781 202.464844 108.933594 C 202.398438 109.15625 199.992188 117.257812 206.421875 124.320312 C 207.859375 125.894531 208.695312 127.855469 208.625 130.003906 C 208.558594 132 207.835938 133.90625 207.089844 135.730469 C 206.285156 137.6875 205.347656 139.636719 205.003906 141.746094 C 204.746094 143.316406 204.707031 145.621094 206.128906 146.691406 C 207.261719 147.542969 208.738281 147.246094 209.835938 146.496094 C 211.183594 145.574219 212.09375 144.101562 212.558594 142.539062 C 213.023438 140.976562 213.070312 139.3125 212.949219 137.683594 C 215.078125 142.914062 215.1875 149.039062 212.894531 154.230469 " fill-opacity="1" fill-rule="nonzero"/></g><g clip-path="url(#d60b2e4deb)"><path fill="#ffffff" d="M 232.132812 139.019531 C 230.863281 138.355469 230.421875 136.671875 231.113281 135.214844 L 241.460938 113.566406 C 241.5625 113.359375 241.675781 113.15625 241.808594 112.96875 C 242.921875 111.320312 244.960938 110.648438 246.570312 111.496094 C 248.371094 112.441406 248.917969 114.886719 247.773438 116.875 L 235.835938 137.691406 C 235.035156 139.09375 233.398438 139.679688 232.132812 139.019531 Z M 254.328125 121.726562 C 255.542969 119.78125 257.957031 119.101562 259.636719 120.242188 C 261.273438 121.355469 261.5625 123.75 260.316406 125.589844 C 260.285156 125.632812 260.253906 125.683594 260.222656 125.726562 L 246.011719 145.058594 C 245.046875 146.367188 243.363281 146.761719 242.179688 145.957031 C 240.996094 145.152344 240.738281 143.433594 241.59375 142.0625 Z M 272.589844 129.164062 C 273.964844 130.34375 274.09375 132.488281 272.980469 134.132812 C 272.847656 134.320312 272.707031 134.503906 272.546875 134.679688 L 256.246094 152.273438 C 255.144531 153.460938 253.421875 153.664062 252.332031 152.734375 C 251.25 151.804688 251.1875 150.066406 252.195312 148.800781 L 267.140625 130.03125 C 268.574219 128.238281 271.046875 127.839844 272.589844 129.164062 Z M 249.980469 161.085938 C 255.597656 161.96875 261.246094 159.753906 264.761719 155.292969 L 281.441406 134.175781 C 284.265625 130.609375 283.460938 125.394531 279.699219 122.839844 L 249.828125 102.558594 C 246.066406 100.003906 240.921875 101.179688 238.644531 105.117188 L 225.171875 128.40625 C 222.324219 133.324219 222.351562 139.394531 225.230469 144.285156 L 232.460938 156.539062 L 215.847656 181.003906 L 156.695312 181.003906 L 148.578125 170.183594 C 147.535156 168.800781 146.8125 167.207031 146.453125 165.523438 L 145.835938 162.566406 C 145.664062 161.78125 145.566406 160.992188 145.519531 160.207031 C 145.382812 157.734375 145.824219 155.257812 146.75 152.929688 C 147.226562 151.730469 147.433594 150.445312 147.363281 149.15625 C 147.269531 147.472656 146.691406 145.796875 145.601562 144.339844 L 107.324219 101.207031 L 109.570312 107.953125 L 131.65625 137.441406 C 132.65625 138.78125 133.183594 140.316406 133.265625 141.863281 C 133.417969 144.480469 132.292969 147.109375 130.039062 148.820312 C 126.339844 151.621094 120.957031 150.765625 118.1875 147.058594 L 96.203125 117.707031 L 90.320312 113.605469 L 120.867188 162.371094 C 122.78125 164.925781 125.804688 166.183594 128.792969 165.984375 C 132.117188 165.753906 135.429688 166.386719 138.351562 167.972656 L 141.25 169.550781 C 142.777344 170.378906 144.105469 171.53125 145.144531 172.914062 L 151.214844 181.003906 L 99.125 181.003906 L 99.125 185.722656 L 274.320312 185.722656 L 274.320312 181.003906 L 220.910156 181.003906 L 235.925781 158.890625 L 249.980469 161.085938 " fill-opacity="1" fill-rule="nonzero"/></g><path fill="#ffffff" d="M 187.746094 222.390625 L 186.75 221.070312 L 188.644531 221.070312 Z M 221.1875 270.699219 C 223.21875 269.222656 226.074219 269.648438 227.570312 271.644531 C 228.121094 272.378906 228.410156 273.222656 228.460938 274.070312 C 228.542969 275.53125 227.894531 277.007812 226.617188 277.945312 C 224.585938 279.421875 221.726562 278.996094 220.230469 276.996094 C 219.683594 276.265625 219.386719 275.421875 219.34375 274.574219 C 219.261719 273.113281 219.902344 271.636719 221.1875 270.699219 Z M 158.429688 277.015625 C 157.085938 279.003906 154.386719 279.519531 152.402344 278.171875 C 150.421875 276.828125 149.90625 274.121094 151.253906 272.140625 C 152.597656 270.15625 155.296875 269.640625 157.277344 270.988281 C 159.261719 272.335938 159.777344 275.035156 158.429688 277.015625 Z M 191.847656 216.351562 L 99.125 216.351562 L 99.125 221.070312 L 181.277344 221.070312 L 183.375 223.863281 L 185.140625 226.222656 L 180.835938 232.5625 C 179.03125 232.285156 177.144531 233.035156 176.058594 234.648438 L 149.316406 270.457031 C 146.960938 273.613281 147.71875 278.078125 150.960938 280.285156 C 154.214844 282.496094 158.648438 281.546875 160.707031 278.199219 L 184.132812 240.132812 C 184.890625 239.019531 185.128906 237.695312 184.890625 236.472656 C 184.789062 235.929688 184.585938 235.398438 184.304688 234.917969 L 187.796875 229.769531 L 191.289062 234.433594 C 191.007812 234.941406 190.820312 235.496094 190.734375 236.0625 C 190.683594 236.40625 190.664062 236.753906 190.683594 237.101562 C 190.738281 238.050781 191.066406 239 191.683594 239.824219 L 217.890625 278.308594 C 220.195312 281.695312 224.894531 282.5 228.214844 280.078125 C 230.257812 278.589844 231.273438 276.246094 231.140625 273.925781 C 231.058594 272.476562 230.535156 271.039062 229.535156 269.824219 L 199.941406 233.804688 C 198.722656 232.179688 196.710938 231.488281 194.828125 231.847656 L 190.402344 225.941406 L 193.707031 221.070312 L 274.320312 221.070312 L 274.320312 216.351562 L 191.847656 216.351562 " fill-opacity="1" fill-rule="nonzero"/><g fill="#ffffff" fill-opacity="1"><g transform="translate(134.720299, 206.551774)"><g><path d="M 10.71875 -6.140625 L 10.71875 -5.390625 C 10.71875 -3.585938 10.34375 -2.210938 9.59375 -1.265625 C 8.84375 -0.328125 7.613281 0.140625 5.90625 0.140625 C 4.832031 0.140625 3.894531 -0.078125 3.09375 -0.515625 C 2.300781 -0.960938 1.6875 -1.613281 1.25 -2.46875 C 0.8125 -3.332031 0.59375 -4.375 0.59375 -5.59375 C 0.59375 -6.832031 0.8125 -7.878906 1.25 -8.734375 C 1.6875 -9.585938 2.289062 -10.234375 3.0625 -10.671875 C 3.84375 -11.117188 4.742188 -11.34375 5.765625 -11.34375 C 6.503906 -11.34375 7.195312 -11.210938 7.84375 -10.953125 C 8.488281 -10.703125 9.035156 -10.316406 9.484375 -9.796875 C 9.929688 -9.285156 10.222656 -8.644531 10.359375 -7.875 L 7.9375 -7.875 C 7.71875 -8.320312 7.445312 -8.660156 7.125 -8.890625 C 6.800781 -9.117188 6.363281 -9.234375 5.8125 -9.234375 C 4.96875 -9.234375 4.3125 -8.90625 3.84375 -8.25 C 3.382812 -7.601562 3.15625 -6.71875 3.15625 -5.59375 C 3.15625 -4.5 3.382812 -3.617188 3.84375 -2.953125 C 4.3125 -2.296875 5 -1.96875 5.90625 -1.96875 C 6.6875 -1.96875 7.296875 -2.132812 7.734375 -2.46875 C 8.171875 -2.8125 8.425781 -3.398438 8.5 -4.234375 L 6.171875 -4.234375 L 6.171875 -6.140625 Z M 10.71875 -6.140625 "/></g></g></g><g fill="#ffffff" fill-opacity="1"><g transform="translate(158.90954, 206.551774)"><g><path d="M 9.953125 -1.875 C 9.953125 -1.414062 9.96875 -1.050781 10 -0.78125 C 10.039062 -0.507812 10.128906 -0.25 10.265625 0 L 7.828125 0 C 7.691406 -0.25 7.601562 -0.507812 7.5625 -0.78125 C 7.519531 -1.050781 7.5 -1.414062 7.5 -1.875 L 7.5 -2.625 C 7.5 -3.0625 7.359375 -3.410156 7.078125 -3.671875 C 6.804688 -3.929688 6.429688 -4.0625 5.953125 -4.0625 L 3.28125 -4.0625 L 3.28125 0 L 0.828125 0 L 0.828125 -11.203125 L 5.65625 -11.203125 C 6.644531 -11.203125 7.441406 -11.050781 8.046875 -10.75 C 8.660156 -10.445312 9.113281 -10.039062 9.40625 -9.53125 C 9.695312 -9.03125 9.84375 -8.460938 9.84375 -7.828125 C 9.84375 -7.117188 9.679688 -6.554688 9.359375 -6.140625 C 9.046875 -5.734375 8.6875 -5.410156 8.28125 -5.171875 C 8.90625 -4.878906 9.335938 -4.535156 9.578125 -4.140625 C 9.828125 -3.742188 9.953125 -3.265625 9.953125 -2.703125 Z M 5.5625 -5.984375 C 6.21875 -5.984375 6.671875 -6.117188 6.921875 -6.390625 C 7.179688 -6.660156 7.3125 -7.0625 7.3125 -7.59375 C 7.3125 -8.101562 7.164062 -8.476562 6.875 -8.71875 C 6.582031 -8.96875 6.160156 -9.09375 5.609375 -9.09375 L 3.28125 -9.09375 L 3.28125 -5.984375 Z M 5.5625 -5.984375 "/></g></g></g><g fill="#ffffff" fill-opacity="1"><g transform="translate(182.410945, 206.551774)"><g><path d="M 5.921875 -11.34375 C 6.992188 -11.34375 7.925781 -11.113281 8.71875 -10.65625 C 9.519531 -10.207031 10.140625 -9.554688 10.578125 -8.703125 C 11.015625 -7.847656 11.234375 -6.8125 11.234375 -5.59375 C 11.234375 -4.40625 11.015625 -3.378906 10.578125 -2.515625 C 10.140625 -1.660156 9.519531 -1.003906 8.71875 -0.546875 C 7.925781 -0.0859375 6.992188 0.140625 5.921875 0.140625 C 4.847656 0.140625 3.910156 -0.0859375 3.109375 -0.546875 C 2.316406 -1.003906 1.695312 -1.660156 1.25 -2.515625 C 0.8125 -3.378906 0.59375 -4.40625 0.59375 -5.59375 C 0.59375 -6.8125 0.8125 -7.847656 1.25 -8.703125 C 1.695312 -9.554688 2.316406 -10.207031 3.109375 -10.65625 C 3.910156 -11.113281 4.847656 -11.34375 5.921875 -11.34375 Z M 5.921875 -1.96875 C 6.804688 -1.96875 7.484375 -2.289062 7.953125 -2.9375 C 8.429688 -3.59375 8.671875 -4.476562 8.671875 -5.59375 C 8.671875 -6.726562 8.429688 -7.617188 7.953125 -8.265625 C 7.484375 -8.910156 6.804688 -9.234375 5.921875 -9.234375 C 5.035156 -9.234375 4.351562 -8.910156 3.875 -8.265625 C 3.394531 -7.617188 3.15625 -6.726562 3.15625 -5.59375 C 3.15625 -4.476562 3.394531 -3.59375 3.875 -2.9375 C 4.351562 -2.289062 5.035156 -1.96875 5.921875 -1.96875 Z M 5.921875 -1.96875 "/></g></g></g><g fill="#ffffff" fill-opacity="1"><g transform="translate(207.032089, 206.551774)"><g><path d="M 10.28125 -11.203125 L 10.28125 0 L 7.71875 0 L 3.328125 -7.140625 L 3.28125 -7.140625 L 3.28125 0 L 0.828125 0 L 0.828125 -11.203125 L 3.3125 -11.203125 L 7.796875 -3.921875 L 7.84375 -3.921875 L 7.84375 -11.203125 Z M 10.28125 -11.203125 "/></g></g></g><g fill="#ffffff" fill-opacity="1"><g transform="translate(230.949393, 206.551774)"><g><path d="M 3.28125 -2.109375 L 8.84375 -2.109375 L 8.84375 0 L 0.828125 0 L 0.828125 -11.203125 L 8.6875 -11.203125 L 8.6875 -9.09375 L 3.28125 -9.09375 L 3.28125 -6.65625 L 7.890625 -6.65625 L 7.890625 -4.703125 L 3.28125 -4.703125 Z M 3.28125 -2.109375 "/></g></g></g></svg>